<svg xmlns="http://www.w3.org/2000/svg" width="26" height="24" viewBox="0 0 26 24" fill="none">
  <path fill-rule="evenodd" clip-rule="evenodd" d="M13.9318 2.20901C13.3597 1.83565 12.563 1.83565 11.9908 2.20901L2.89515 8.14437C2.50345 8.39998 2.27391 8.79542 2.27391 9.21465V20.0346C2.27391 20.7803 2.98656 21.3849 3.86565 21.3849H22.057C22.9361 21.3849 23.6487 20.7803 23.6487 20.0346V9.21465C23.6487 8.79542 23.4192 8.39998 23.0275 8.14437L13.9318 2.20901ZM10.6044 0.680046C11.9939 -0.226682 13.9287 -0.226682 15.3182 0.680045L24.4139 6.61541C25.3652 7.23616 25.9226 8.19653 25.9226 9.21465V20.0346C25.9226 21.8457 24.1919 23.3139 22.057 23.3139H3.86565C1.73071 23.3139 0 21.8457 0 20.0346V9.21465C0 8.19653 0.557443 7.23616 1.50872 6.61541L10.6044 0.680046Z" fill="#65676B" fill-opacity="0.8"/>
</svg>